# xmcd CD database file
#
# Track frame offsets:
#	182
#	19302
#	53620
#	83580
#	114295
#	140692
#	170012
#	206617
#
# Disc length: 2964 seconds
#
# Revision: 0
# Processed by: cddbd v1.4PL0 Copyright (c) Steve Scherf et al.
# Submitted via: CDex 1.51
#
DISCID=650b9208
DTITLE=Grand Angle - Grand Angle
DYEAR=1989
DGENRE=Jazz
TTITLE0=Anaconda
TTITLE1=Plein ciel
TTITLE2=Tokaïdo
TTITLE3=Orénoque
TTITLE4=45e Parallele
TTITLE5=Jardins Suspendus
TTITLE6=Song for Pat
TTITLE7=Tamatave
EXTD=YEAR: 1989
EXTT0=
EXTT1=
EXTT2=
EXTT3=
EXTT4=
EXTT5=
EXTT6=
EXTT7=
PLAYORDER=
